name Walk1.mot
datacolumns 19
datarows 25
range 3.16000000 3.28000000
endheader

                time	   L_ground_force_vx	   L_ground_force_vy	   L_ground_force_vz	   L_ground_force_px	   L_ground_force_py	   L_ground_force_pz	   R_ground_force_vx	   R_ground_force_vy	   R_ground_force_vz	   R_ground_force_px	   R_ground_force_py	   R_ground_force_pz	   L_ground_torque_x	   L_ground_torque_y	   L_ground_torque_z	   R_ground_torque_x	   R_ground_torque_y	   R_ground_torque_z	
          3.16000000	          2.66289970	        104.13148155	         -1.64898262	         -0.05795253	          0.00000000	         -0.00584872	         -0.00000000	          0.00000000	          0.00000000	          0.00000000	          0.00000000	          0.00000000	          0.00000000	          0.00811907	          0.00000000	          0.00000000	          0.00000000	          0.00000000	
          3.16500000	          2.33555548	        150.85495867	         -1.73801457	         -0.12955926	          0.00000000	         -0.01495225	         -0.00000000	          0.00000000	          0.00000000	          0.00000000	          0.00000000	          0.00000000	          0.00000000	          0.04246647	          0.00000000	          0.00000000	          0.00000000	          0.00000000	
          3.17000000	         -0.66181427	        197.68685486	         -2.22437654	         -0.19197797	          0.00000000	         -0.02275204	         -0.00000000	          0.00000000	          0.00000000	          0.00000000	          0.00000000	          0.00000000	          0.00000000	          0.08795547	          0.00000000	          0.00000000	          0.00000000	          0.00000000	
          3.17500000	         -6.49968692	        242.62384408	         -3.02302032	         -0.24338021	          0.00000000	         -0.02905635	         -0.00000000	          0.00000000	          0.00000000	          0.00000000	          0.00000000	          0.00000000	          0.00000000	          0.14645668	          0.00000000	          0.00000000	          0.00000000	          0.00000000	
          3.18000000	        -14.76228130	        284.67411383	         -3.92645548	         -0.28349775	          0.00000000	         -0.03388594	         -0.00000000	          0.00000000	          0.00000000	          0.00000000	          0.00000000	          0.00000000	          0.00000000	          0.21895368	          0.00000000	          0.00000000	          0.00000000	          0.00000000	
          3.18500000	        -24.56755209	        323.43363223	         -4.71186544	         -0.31309336	          0.00000000	         -0.03739065	         -0.00000000	          0.00000000	          0.00000000	         -0.00000000	          0.00000000	         -0.00000000	          0.00000000	          0.30382529	          0.00000000	          0.00000000	          0.00000000	          0.00000000	
          3.19000000	        -34.76702412	        358.68063953	         -5.21075961	         -0.33353005	          0.00000000	         -0.03978688	         -0.00000000	          0.00000000	          0.00000000	         -0.00000000	          0.00000000	         -0.00000000	          0.00000000	          0.39575482	          0.00000000	          0.00000000	          0.00000000	          0.00000000	
          3.19500000	        -44.16880370	        390.32960043	         -5.32653526	         -0.34643914	          0.00000000	         -0.04131015	         -0.00000000	         -0.00000000	         -0.00000000	         -0.00000000	          0.00000000	         -0.00000000	          0.00000000	          0.48547369	          0.00000000	          0.00000000	          0.00000000	          0.00000000	
          3.20000000	        -51.83734356	        418.44557640	         -5.01352304	         -0.35347805	          0.00000000	         -0.04218284	          0.00000000	         -0.00000000	         -0.00000000	         -0.00000000	          0.00000000	         -0.00000000	          0.00000000	          0.56135695	          0.00000000	          0.00000000	          0.00000000	          0.00000000	
          3.20500000	        -57.37928609	        443.14746134	         -4.21958151	         -0.35617240	          0.00000000	         -0.04260110	          0.00000000	         -0.00000001	         -0.00000000	         -0.00000000	          0.00000000	         -0.00000000	          0.00000000	          0.61199133	          0.00000000	          0.00000000	          0.00000000	          0.00000000	
          3.21000000	        -60.98345528	        464.54021176	         -2.86709748	         -0.35582995	          0.00000000	         -0.04273243	          0.00000000	         -0.00000001	         -0.00000000	         -0.00000000	          0.00000000	         -0.00000000	          0.00000000	          0.62860614	          0.00000000	          0.00000000	         -0.00000000	          0.00000000	
          3.21500000	        -63.14685492	        482.79911911	         -0.90242654	         -0.35351216	          0.00000000	         -0.04271273	          0.00000000	         -0.00000002	         -0.00000000	         -0.00000000	          0.00000000	         -0.00000000	          0.00000000	          0.60730425	          0.00000000	          0.00000000	         -0.00000000	          0.00000000	
          3.22000000	        -64.35537502	        498.29811612	          1.67132227	         -0.35004177	          0.00000000	         -0.04264681	          0.00000000	         -0.00000003	         -0.00000000	         -0.00000000	          0.00000000	         -0.00000000	          0.00000000	          0.55023608	          0.00000000	          0.00000000	         -0.00000000	          0.00000000	
          3.22500000	        -64.94316786	        511.66876500	          4.79859339	         -0.34602540	          0.00000000	         -0.04261261	          0.00000000	         -0.00000004	         -0.00000000	         -0.00000000	          0.00000000	         -0.00000000	          0.00000000	          0.46535778	          0.00000000	          0.00000000	         -0.00000000	          0.00000000	
          3.23000000	        -65.12459108	        523.73616267	          8.38279760	         -0.34188247	          0.00000000	         -0.04266148	          0.00000000	         -0.00000005	         -0.00000000	         -0.00000000	          0.00000000	         -0.00000000	          0.00000000	          0.36511341	          0.00000000	          0.00000000	         -0.00000000	          0.00000000	
          3.23500000	        -65.09215246	        535.36463193	         12.29148513	         -0.33787604	          0.00000000	         -0.04281693	          0.00000000	         -0.00000006	         -0.00000000	         -0.00000000	          0.00000000	         -0.00000000	          0.00000000	          0.26462500	          0.00000000	          0.00000000	         -0.00000000	          0.00000000	
          3.24000000	        -65.06797425	        547.32902686	         16.36364426	         -0.33414519	          0.00000000	         -0.04308067	          0.00000000	         -0.00000006	         -0.00000000	         -0.00000000	          0.00000000	         -0.00000000	          0.00000000	          0.17896419	          0.00000000	          0.00000000	         -0.00000000	          0.00000000	
          3.24500000	        -65.27923252	        560.25805342	         20.43141749	         -0.33073798	          0.00000000	         -0.04344284	          0.00000001	         -0.00000006	         -0.00000000	         -0.00000000	          0.00000000	         -0.00000000	          0.00000000	          0.12035977	          0.00000000	          0.00000000	         -0.00000000	          0.00000000	
          3.25000000	        -65.89987963	        574.62804644	         24.34889574	         -0.32764399	          0.00000000	         -0.04388685	          0.00000001	         -0.00000006	         -0.00000000	         -0.00000000	          0.00000000	         -0.00000000	          0.00000000	          0.09675648	          0.00000000	          0.00000000	         -0.00000000	          0.00000000	
          3.25500000	        -67.01161026	        590.76083330	         28.00774032	         -0.32482208	          0.00000000	         -0.04439075	          0.00000001	         -0.00000004	         -0.00000000	          0.00000000	          0.00000000	          0.00000000	          0.00000000	          0.11200536	          0.00000000	          0.00000000	         -0.00000000	          0.00000000	
          3.26000000	        -68.60387347	        608.78351269	         31.33611050	         -0.32222183	          0.00000000	         -0.04492979	          0.00000000	         -0.00000002	         -0.00000000	          0.00000000	          0.00000000	          0.00000000	          0.00000000	          0.16573476	          0.00000000	          0.00000000	         -0.00000000	          0.00000000	
          3.26500000	        -70.59404888	        628.56630788	         34.29278715	         -0.31980172	          0.00000000	         -0.04547864	          0.00000000	          0.00000003	          0.00000000	          0.00000000	          0.00000000	          0.00000000	          0.00000000	          0.25353500	          0.00000000	          0.00000000	         -0.00000000	          0.00000000	
          3.27000000	        -72.84567218	        649.68907244	         36.85477964	         -0.31753996	          0.00000000	         -0.04601331	         -0.00000000	          0.00000010	          0.00000000	          0.00000000	          0.00000000	          0.00000000	          0.00000000	          0.36841002	          0.00000000	          0.00000000	         -0.00000000	          0.00000000	
          3.27500000	        -75.18275837	        671.54129612	         39.01134773	         -0.31542795	          0.00000000	         -0.04651401	         -0.00000001	          0.00000020	          0.00000001	          0.00000000	          0.00000000	          0.00000000	          0.00000000	          0.50297871	          0.00000000	          0.00000000	         -0.00000000	          0.00000000	
          3.28000000	        -77.42543248	        693.49780318	         40.77408947	         -0.31346276	          0.00000000	         -0.04696757	         -0.00000001	          0.00000032	          0.00000002	          0.00000000	          0.00000000	          0.00000000	          0.00000000	          0.65101840	          0.00000000	          0.00000000	          0.00000000	          0.00000000	
